<svg enable-background="new 0 0 250 250" height="250" viewBox="0 0 250 250" width="250" xmlns="http://www.w3.org/2000/svg"><switch><g><path d="m216.225 124.771c0 50.305-40.781 91.087-91.086 91.087-50.301 0-91.082-40.782-91.082-91.087 0-50.302 40.781-91.081 91.082-91.081 50.304-.001 91.086 40.779 91.086 91.081z" fill="#fff"/><path d="m124.998 29.96c-52.402 0-95.035 42.638-95.035 95.041 0 1.041.043 2.069.08 3.099 3.549-2.964 7.248-5.761 11.07-8.387 2.738-43.904 39.309-78.786 83.885-78.786 44.584 0 81.15 34.882 83.891 78.786 3.822 2.626 7.523 5.423 11.068 8.387.039-1.029.08-2.058.08-3.099 0-52.403-42.633-95.041-95.039-95.041z" fill="#a7d1e5"/><path d="m208.889 119.713c.109 1.751.186 3.511.186 5.288 0 2.739-.145 5.444-.4 8.118-4.098 42.563-40.053 75.953-83.676 75.953-43.619 0-79.574-33.39-83.672-75.953-.256-2.674-.4-5.379-.4-8.118 0-1.777.074-3.537.188-5.288-3.822 2.626-7.521 5.423-11.07 8.387.146 4.559.609 9.034 1.381 13.406 7.84 44.561 46.801 78.534 93.574 78.534s85.742-33.974 93.578-78.534c.768-4.372 1.24-8.848 1.381-13.406-3.547-2.964-7.248-5.761-11.07-8.387z" fill="#1e639e"/><path d="m67.801 103.213c0 1.265.881 2.362 2.119 2.629 16.705 3.636 29.846 16.78 33.484 33.486.264 1.237 1.361 2.115 2.629 2.115s2.361-.878 2.631-2.115c3.633-16.706 16.773-29.851 33.479-33.486 1.24-.267 2.121-1.364 2.121-2.629 0-1.269-.881-2.359-2.121-2.631-4.664-1.014-9.107-2.779-13.205-5.249-1.273-.768-2.928-.357-3.699.916-.764 1.278-.354 2.928.922 3.695 2.076 1.255 4.234 2.341 6.457 3.271-11.998 4.988-21.594 14.588-26.588 26.589-4.992-12.001-14.588-21.601-26.59-26.592 12.002-4.992 21.598-14.593 26.594-26.591 2.256 5.415 5.479 10.425 9.533 14.754 1.018 1.086 2.721 1.142 3.803.127 1.088-1.015 1.145-2.72.127-3.806-5.41-5.782-9.156-12.905-10.832-20.599-.27-1.237-1.363-2.117-2.631-2.117s-2.365.88-2.629 2.117c-3.639 16.706-16.779 29.849-33.484 33.483-1.239.274-2.12 1.364-2.12 2.633z" fill="#f6d850"/><path d="m182.199 140.323c0-1.269-.881-2.364-2.119-2.631-10.66-2.326-19.043-10.708-21.365-21.37-.27-1.235-1.363-2.115-2.631-2.115-1.264 0-2.363.88-2.627 2.115-2.318 10.662-10.713 19.044-21.369 21.37-1.234.267-2.119 1.362-2.119 2.631 0 1.264.885 2.362 2.119 2.626 4.123.899 8.062 2.766 11.387 5.403 1.168.926 2.857.729 3.783-.441.922-1.161.729-2.854-.439-3.779-1.865-1.482-3.896-2.761-6.037-3.809 6.643-3.257 12.047-8.66 15.307-15.301 3.256 6.641 8.656 12.044 15.301 15.301-6.645 3.254-12.045 8.655-15.301 15.296-.557-1.13-1.176-2.229-1.859-3.295-.803-1.257-2.467-1.619-3.717-.818-1.254.806-1.617 2.468-.816 3.725 1.795 2.794 3.055 5.85 3.762 9.084.27 1.238 1.363 2.123 2.631 2.123 1.264 0 2.357-.885 2.631-2.123 2.318-10.654 10.701-19.044 21.361-21.363 1.232-.266 2.117-1.362 2.117-2.629z" fill="#f6d850"/><path d="m116.299 150.501c-.27-1.239-1.365-2.117-2.633-2.117-1.264 0-2.359.878-2.627 2.117-1.475 6.768-6.801 12.095-13.57 13.569-1.236.271-2.119 1.367-2.119 2.631 0 1.267.883 2.359 2.119 2.631 6.77 1.475 12.096 6.801 13.57 13.574.268 1.232 1.363 2.115 2.627 2.115 1.268 0 2.363-.883 2.633-2.115 1.473-6.773 6.799-12.1 13.572-13.574 1.234-.271 2.115-1.364 2.115-2.631 0-1.264-.881-2.36-2.115-2.631-6.773-1.467-12.1-6.797-13.572-13.569zm-2.633 24.52c-2.01-3.439-4.879-6.31-8.314-8.319 3.436-2.008 6.305-4.878 8.314-8.314 2.01 3.437 4.879 6.307 8.314 8.314-3.431 2.014-6.3 4.879-8.314 8.319z" fill="#f6d850"/><g fill="#eec315"><path d="m86.295 145.271c-.107-.146-.215-.283-.334-.415-1.012-1-2.803-1-3.814 0-.115.132-.236.269-.334.415-.096.135-.176.3-.242.458-.068.163-.121.336-.162.511-.025.163-.053.353-.053.525 0 .355.07.7.201 1.026.15.321.338.616.59.876.516.511 1.189.793 1.902.793.729 0 1.4-.282 1.912-.793.252-.26.439-.555.576-.876.137-.326.205-.671.205-1.026 0-.173-.018-.362-.059-.525-.027-.175-.08-.348-.146-.511-.068-.159-.148-.309-.242-.458z"/><path d="m152.359 89.623c-.096-.145-.215-.278-.338-.4-.119-.12-.258-.242-.4-.334-.152-.096-.311-.191-.477-.259-.158-.053-.32-.108-.496-.144-.348-.07-.711-.07-1.049 0-.176.035-.352.091-.51.144-.166.072-.311.163-.463.259-.143.092-.281.214-.414.334-.123.122-.229.254-.338.4-.096.15-.174.312-.24.472-.07.166-.123.326-.15.504-.039.173-.053.348-.053.525 0 .359.066.71.203 1.033.135.324.322.621.578.876.51.501 1.186.784 1.912.784.711 0 1.383-.283 1.896-.784.51-.511.793-1.188.793-1.909 0-.178-.025-.353-.053-.525-.039-.178-.092-.338-.162-.504-.067-.16-.147-.322-.239-.472z"/><path d="m136.324 165.229c.098.151.217.29.342.425.252.242.549.441.875.58.32.135.67.196 1.02.196.365 0 .715-.062 1.037-.196.32-.139.615-.338.873-.58.121-.135.242-.269.338-.425.096-.144.172-.29.242-.453.064-.163.125-.333.148-.496.043-.176.055-.353.055-.537 0-.178-.012-.354-.055-.53-.023-.173-.084-.334-.148-.494-.07-.163-.146-.324-.242-.473-.105-.148-.217-.283-.338-.405-1.01-1.007-2.799-1.007-3.805 0-.125.122-.244.257-.342.405-.092.146-.17.31-.244.473-.062.16-.119.321-.158.494-.027.177-.053.353-.053.53 0 .189.025.361.053.537.039.163.096.333.148.496.071.162.162.309.254.453z"/><path d="m124.66 126.493c.088.148.215.282.334.405.135.134.268.242.416.335.148.11.299.189.457.257.162.067.338.12.5.145.176.04.35.057.539.057.711 0 1.387-.28 1.895-.793.123-.123.242-.257.338-.405.094-.146.186-.296.244-.458.064-.161.117-.336.16-.514.025-.158.053-.353.053-.522 0-.176-.027-.351-.053-.528-.043-.175-.096-.35-.16-.508-.072-.166-.15-.31-.244-.461-.096-.146-.215-.283-.338-.405-.121-.134-.254-.237-.402-.336-.146-.093-.309-.189-.471-.256s-.324-.118-.496-.146c-.877-.178-1.807.11-2.438.741-.119.119-.229.256-.334.402-.096.151-.176.295-.246.461-.066.158-.119.333-.148.511-.043.175-.053.353-.053.525 0 .177.01.364.053.527.029.175.082.348.148.511.07.162.15.309.246.455z"/></g></g></switch></svg>