<svg enable-background="new 0 0 250 250" height="250" viewBox="0 0 250 250" width="250" xmlns="http://www.w3.org/2000/svg"><switch><g><path d="m216.279 124.061c0 50.301-40.781 91.084-91.086 91.084-50.303 0-91.084-40.783-91.084-91.084 0-50.305 40.781-91.084 91.084-91.084 50.305 0 91.086 40.779 91.086 91.084z" fill="#fff"/><path d="m41.324 133.113c4.1 42.566 40.059 75.963 83.676 75.963 43.619 0 79.578-33.396 83.672-75.963.26-2.672.402-5.375.402-8.113 0-1.775-.074-3.539-.184-5.293-2.742-43.902-39.31-78.783-83.89-78.783s-81.146 34.881-83.889 78.783c-.109 1.754-.184 3.518-.184 5.293.001 2.738.141 5.441.397 8.113z" fill="none"/><path d="m125 29.961c-52.406 0-95.039 42.631-95.039 95.039 0 1.039.045 2.064.082 3.102 3.551-2.967 7.248-5.762 11.068-8.395 2.743-43.902 39.309-78.783 83.889-78.783s81.148 34.881 83.891 78.783c3.82 2.633 7.52 5.428 11.068 8.395.035-1.037.08-2.062.08-3.102 0-52.408-42.633-95.039-95.039-95.039z" fill="#a7d1e5"/><path d="m208.891 119.707c.109 1.754.184 3.518.184 5.293 0 2.738-.143 5.441-.402 8.113-4.094 42.566-40.053 75.963-83.672 75.963-43.617 0-79.576-33.396-83.676-75.963-.256-2.672-.396-5.375-.396-8.113 0-1.775.074-3.539.184-5.293-3.82 2.633-7.518 5.428-11.068 8.395.146 4.553.613 9.025 1.383 13.4 7.84 44.566 46.801 78.537 93.574 78.537s85.738-33.971 93.576-78.537c.768-4.375 1.242-8.848 1.383-13.4-3.551-2.967-7.25-5.762-11.07-8.395z" fill="#1e639e"/><path d="m157.512 72.885c4.752 0 8.607 3.854 8.607 8.607v87.021c0 4.752-3.855 8.602-8.607 8.602h-65.024c-4.752 0-8.607-3.85-8.607-8.602v-87.021c0-4.754 3.855-8.607 8.607-8.607zm0-5.407h-65.024c-7.728 0-14.015 6.287-14.015 14.015v87.021c0 7.725 6.287 14.009 14.015 14.009h65.023c7.728 0 14.015-6.284 14.015-14.009v-87.022c0-7.727-6.287-14.014-14.014-14.014z" fill="#eec315"/><path d="m97.098 115.297c-2.586 0-4.682-2.096-4.682-4.684v-23.445c0-2.59 2.096-4.686 4.682-4.686h39.953c2.586 0 4.686 2.096 4.686 4.686v23.445c0 2.588-2.1 4.684-4.686 4.684z" fill="#eec315"/><g fill="none" stroke="#eec315" stroke-linecap="round" stroke-miterlimit="10" stroke-width="3.605"><path d="m149.797 83.334 6.162 6.166"/><path d="m155.959 83.334-6.162 6.166"/><path d="m94.27 126.057h61.869"/><path d="m94.27 135.885h61.869"/><path d="m94.27 145.713h61.869"/><path d="m94.27 155.541h61.869"/><path d="m94.27 165.367 61.869.002"/></g></g></switch></svg>