<svg enable-background="new 0 0 250 250" height="250" viewBox="0 0 250 250" width="250" xmlns="http://www.w3.org/2000/svg"><switch><g><circle cx="124.284" cy="124.545" fill="#fff" r="91.085"/><path d="m92.152 94.123c2.449 0 4.904.363 7.304 1.081 7.882 2.344 14.19 8.378 16.875 16.14l1.05 3.033h3.209 60.162c1.318 0 2.682 0 2.682 3.293v19.578c0 .29.002.583.005.877.007.889.02 2.29-.129 2.985-.134.019-.321.034-.573.034h-4.822c-1.764 0-2.082 0-2.082-3.043v-10.439-4.506h-4.506-7.883-4.506v4.506 10.439c0 1.339-.264 2.021-.393 2.219-.053.012-.155.027-.32.027h-5.393c-.508 0-1.498-1.213-1.498-2.246v-10.439-4.506h-4.506-25.652-3.439l-.907 3.317c-2.308 8.437-8.964 15.234-17.369 17.74-2.417.719-4.875 1.083-7.308 1.083-14.107 0-25.586-11.478-25.586-25.584-.001-14.109 11.478-25.589 25.585-25.589m0 42.305c9.219 0 16.719-7.498 16.719-16.715 0-9.22-7.5-16.721-16.719-16.721-9.218 0-16.717 7.501-16.717 16.721.001 9.217 7.5 16.715 16.717 16.715m0-46.811c-16.617 0-30.092 13.477-30.092 30.096s13.475 30.09 30.092 30.09c2.99 0 5.865-.459 8.592-1.27 9.918-2.957 17.693-10.859 20.432-20.871h25.652v10.439c0 3.15 2.6 6.752 6.004 6.752s1.77 0 5.393 0c3.621 0 5.219-2.779 5.219-6.752v-10.439h7.883v10.439c0 3.461.629 7.549 6.588 7.549h4.822c5.676 0 5.203-4.502 5.203-8.402v-19.578c0-4.738-2.35-7.799-7.188-7.799h-60.162c-3.152-9.113-10.562-16.225-19.85-18.986-2.722-.815-5.601-1.268-8.588-1.268zm0 42.305c-6.742 0-12.211-5.465-12.211-12.209s5.469-12.215 12.211-12.215c6.74 0 12.213 5.471 12.213 12.215s-5.472 12.209-12.213 12.209z" fill="#eec315"/><path d="m41.326 133.117c4.098 42.562 40.057 75.957 83.676 75.957 43.617 0 79.574-33.395 83.67-75.957.262-2.674.404-5.377.404-8.115 0-1.777-.078-3.541-.186-5.293-2.74-43.902-39.309-78.785-83.889-78.785s-81.148 34.883-83.891 78.785c-.109 1.752-.182 3.516-.182 5.293.002 2.738.138 5.441.398 8.115z" fill="none"/><path d="m125.002 29.963c-52.404 0-95.041 42.633-95.041 95.039 0 1.037.045 2.066.08 3.102 3.557-2.965 7.25-5.762 11.07-8.395 2.742-43.902 39.311-78.785 83.891-78.785s81.148 34.883 83.889 78.785c3.824 2.633 7.52 5.43 11.068 8.395.037-1.035.08-2.064.08-3.102 0-52.406-42.635-95.039-95.037-95.039z" fill="#a7d1e5"/><path d="m208.891 119.709c.107 1.752.186 3.516.186 5.293 0 2.738-.143 5.441-.404 8.115-4.096 42.562-40.053 75.957-83.67 75.957-43.619 0-79.578-33.395-83.676-75.957-.26-2.674-.396-5.377-.396-8.115 0-1.777.072-3.541.182-5.293-3.82 2.633-7.514 5.43-11.07 8.395.15 4.553.615 9.027 1.387 13.4 7.838 44.564 46.799 78.533 93.574 78.533 46.771 0 85.736-33.969 93.574-78.533.768-4.373 1.238-8.848 1.383-13.4-3.551-2.965-7.246-5.762-11.07-8.395z" fill="#1e639e"/></g></switch></svg>