<svg enable-background="new 0 0 250 250" height="250" viewBox="0 0 250 250" width="250" xmlns="http://www.w3.org/2000/svg"><switch><g><path d="m216.084 124.996c0 50.305-40.779 91.087-91.084 91.087s-91.084-40.782-91.084-91.087c0-50.303 40.779-91.081 91.084-91.081s91.084 40.778 91.084 91.081z" fill="#fff"/><path d="m125.004 29.96c-52.406 0-95.041 42.638-95.041 95.041 0 1.041.047 2.069.08 3.099 3.555-2.964 7.248-5.761 11.068-8.389 2.742-43.902 39.309-78.784 83.893-78.784 44.576 0 81.145 34.882 83.885 78.784 3.824 2.628 7.521 5.425 11.068 8.389.039-1.029.08-2.058.08-3.099 0-52.403-42.633-95.041-95.033-95.041z" fill="#a7d1e5"/><path d="m208.889 119.711c.109 1.753.186 3.513.186 5.29 0 2.739-.143 5.444-.402 8.118-4.096 42.563-40.053 75.953-83.668 75.953-43.623 0-79.58-33.39-83.676-75.953-.262-2.674-.398-5.379-.398-8.118 0-1.777.072-3.537.182-5.29-3.82 2.628-7.514 5.425-11.068 8.389.146 4.557.613 9.034 1.387 13.406 7.836 44.561 46.797 78.534 93.574 78.534 46.768 0 85.732-33.974 93.57-78.534.768-4.372 1.24-8.85 1.383-13.406-3.549-2.964-7.246-5.761-11.07-8.389z" fill="#1e639e"/><path d="m165.387 158.392c0 2.139-1.734 3.873-3.875 3.873h-80.799c-2.137 0-3.873-1.734-3.873-3.873v-52.617c0-2.137 1.736-3.873 3.873-3.873h80.799c2.141 0 3.875 1.736 3.875 3.873z" fill="#1e639e"/><path d="m155.814 77.943c0-1.107-1.133-2.038-2.234-2.038h-49.492c-1.209 0-2.129.931-2.129 2.038v8.13c0 .015.002.024.002.041 0 0-.002.019-.002.036v9.77h12.285v-9.938h29.281v10.079h12.289v-9.911c0-.015-.004-.024-.004-.043 0 0 .004-.02.004-.034z" fill="#eec315"/><path d="m173.158 152.552c0 2.139-1.734 3.875-3.873 3.875h-80.801c-2.139 0-3.873-1.738-3.873-3.875v-52.614c0-2.142 1.734-3.876 3.873-3.876h80.801c2.139 0 3.873 1.734 3.873 3.876z" fill="#fff" stroke="#a7d1e5" stroke-miterlimit="10" stroke-width="4.506"/><g fill="#a7d1e5"><path d="m143.637 95.92h12.178v60.507h-12.178z"/><path d="m101.775 95.92h12.494v60.507h-12.494z"/></g></g></switch></svg>