<svg enable-background="new 0 0 250 250" height="250" viewBox="0 0 250 250" width="250" xmlns="http://www.w3.org/2000/svg" xmlns:xlink="http://www.w3.org/1999/xlink"><clipPath id="a"><circle cx="126.221" cy="125" r="88.171"/></clipPath><switch><g><circle cx="124.93" cy="125.593" fill="#fff" r="91.085"/><path d="m87.26 152.145c-7.882 0-7.882-6.508-7.882-8.648v-58.337c0-2.145 1.73-3.877 3.871-3.877h67.527c2.141 0-15.891 1.732-15.891 3.877v63.109c0 2.141-1.736 3.875-3.873 3.875h-43.752z" fill="#eec315"/><path d="m38.05 84.373 179.303.004" fill="none" stroke="#1e639e" stroke-width="7.2804" stroke-linecap="round" stroke-miterlimit="10" clip-path="url(#a)"/><path d="m94.924 174.655c-2.211 0-7.354-.828-7.354-8.493l.01-83.052h76.345c.894 0 1.62.726 1.62 1.618v81.434c0 .869-.19 8.493-6.776 8.493z" fill="#fff"/><path d="m163.292 85.363v80.799c0 .763-.206 2.604-.982 4.111-.779 1.512-1.805 2.129-3.541 2.129h-63.845c-2.66 0-3.604-1.102-4.176-2.179-.881-1.659-.926-3.675-.926-4.061l.011-80.8h73.459m.633-4.505h-78.598l-.011 85.305c0 2.139.669 10.746 9.607 10.746h63.845c8.086 0 9.029-8.607 9.029-10.746v-81.433c.001-2.139-1.732-3.872-3.872-3.872z" fill="#f6d850"/><path d="m89.876 162.975h73.602" fill="none" stroke="#eec315" stroke-miterlimit="10" stroke-width="4.506"/><path d="m124.999 29.961c-52.406 0-95.037 42.633-95.037 95.039 0 1.041.043 2.066.079 3.1 3.55-2.965 7.249-5.76 11.067-8.391 2.743-43.904 39.311-78.783 83.891-78.783s81.15 34.879 83.891 78.783c3.822 2.631 7.52 5.426 11.066 8.391.037-1.033.082-2.059.082-3.1 0-52.406-42.633-95.039-95.039-95.039z" fill="#a7d1e5"/><path d="m208.89 119.709c.109 1.754.186 3.516.186 5.291 0 2.738-.145 5.441-.404 8.115-4.094 42.562-40.053 75.961-83.672 75.961s-79.576-33.398-83.676-75.961c-.256-2.674-.396-5.377-.396-8.115 0-1.777.072-3.537.182-5.291-3.818 2.631-7.518 5.426-11.067 8.391.146 4.557.612 9.027 1.384 13.4 7.836 44.564 46.798 78.539 93.574 78.539 46.773 0 85.738-33.971 93.574-78.537.771-4.375 1.244-8.846 1.383-13.402-3.549-2.965-7.246-5.76-11.068-8.391z" fill="#1e639e"/></g></switch></svg>